<svg width="631" height="470" viewBox="0 0 631 470" fill="none" xmlns="http://www.w3.org/2000/svg">
<g clip-path="url(#clip0_188_2)">
<path d="M469.901 375.913H343.528C342.368 375.913 341.256 375.452 340.436 374.632C339.616 373.812 339.155 372.7 339.155 371.541C339.155 370.381 339.616 369.269 340.436 368.449C341.256 367.629 342.368 367.168 343.528 367.168H469.901C471.061 367.168 472.173 367.629 472.993 368.449C473.813 369.269 474.274 370.381 474.274 371.541C474.274 372.7 473.813 373.812 472.993 374.632C472.173 375.452 471.061 375.913 469.901 375.913Z" fill="#5790CC" fill-opacity="0.89"/>
<path d="M469.901 469.151H343.528C342.368 469.151 341.256 468.69 340.436 467.87C339.616 467.051 339.155 465.938 339.155 464.779C339.155 463.619 339.616 462.507 340.436 461.687C341.256 460.867 342.368 460.406 343.528 460.406H469.901C471.061 460.406 472.173 460.867 472.993 461.687C473.813 462.507 474.274 463.619 474.274 464.779C474.274 465.938 473.813 467.051 472.993 467.87C472.173 468.69 471.061 469.151 469.901 469.151Z" fill="#5790CC" fill-opacity="0.89"/>
<path d="M572.537 422.563H343.528C342.953 422.563 342.384 422.451 341.852 422.232C341.321 422.012 340.838 421.69 340.432 421.284C340.025 420.878 339.702 420.396 339.482 419.865C339.262 419.334 339.149 418.765 339.149 418.19C339.149 417.616 339.262 417.046 339.482 416.516C339.702 415.985 340.025 415.502 340.432 415.096C340.838 414.69 341.321 414.368 341.852 414.149C342.384 413.93 342.953 413.817 343.528 413.818H572.537C573.695 413.82 574.806 414.281 575.624 415.101C576.443 415.921 576.902 417.032 576.902 418.19C576.902 419.349 576.443 420.46 575.624 421.28C574.806 422.099 573.695 422.561 572.537 422.563Z" fill="#5790CC" fill-opacity="0.89"/>
<path d="M272.199 417.653L279.379 424.41L309.439 399.318L298.843 389.345L272.199 417.653Z" fill="#FFB6B6"/>
<path d="M285.271 446.872L281.282 428.269L286.117 423.131L283.514 420.954L275.432 414.219L273.455 412.563L254.864 429.284L260.253 434.35L265.998 430.171L263.667 437.568L277.94 451.004C278.624 451.648 279.496 452.057 280.429 452.17C281.362 452.283 282.306 452.095 283.125 451.634C283.943 451.172 284.593 450.462 284.979 449.605C285.365 448.748 285.468 447.791 285.271 446.872Z" fill="#2F2E41"/>
<path d="M237.201 443.782L246.948 445.264L257.428 407.535L243.043 405.349L237.201 443.782Z" fill="#FFB6B6"/>
<path d="M264.559 460.399L250.706 447.357L251.767 440.382L248.387 440.069L237.91 439.119L235.342 438.88L229.544 463.203L236.857 464.31L239.21 457.607L241.495 465.019L260.874 467.966C261.803 468.107 262.753 467.947 263.585 467.51C264.417 467.073 265.087 466.382 265.499 465.537C265.91 464.693 266.041 463.739 265.872 462.814C265.703 461.89 265.243 461.044 264.559 460.399Z" fill="#2F2E41"/>
<path d="M330.971 175.764L358.924 225.828C358.924 225.828 357.757 328.793 361.472 332.612C365.187 336.431 368.55 339.856 365.187 339.825C361.823 339.794 362.909 364.152 362.909 364.152L300.909 412.152L285.909 400.152L323.54 353.703L302.757 258.626C302.757 258.626 287.827 348.539 285.136 351.23C282.445 353.921 280.822 353.902 283.652 356.602C286.482 359.303 283.652 365.41 283.652 365.41L254.154 426.631L238.154 424.613C238.154 424.613 240.928 374.634 250.587 353.178V251.783C249.86 260.477 283.891 172.487 263.08 179.092C269.664 177.002 330.971 175.764 330.971 175.764Z" fill="#2F2E41"/>
<path d="M318.148 56.4558H295.039L291.768 69.5426L274 74.4558C274 74.4558 265.212 132.736 272.593 137.437C279.974 142.138 274.827 156.842 274.827 156.842C274.827 156.842 256.446 176.694 258.652 179.635C260.857 182.576 265.332 178.101 260.154 183.279C254.975 188.458 252.034 187.722 253.505 189.193C254.414 190.126 255.119 191.238 255.574 192.458L249.232 208.971C249.232 208.971 282.915 215.662 299.825 206.103C316.736 196.545 354.233 214.926 354.233 214.926C354.233 214.926 352.304 205.276 350.695 203.851C349.086 202.427 345.335 206.028 347.946 201.287C350.557 196.545 352.762 198.751 350.557 196.545C348.351 194.34 338.793 164.93 338.793 164.93C338.793 164.93 331.44 148.755 339.528 142.138C347.616 135.52 350.695 113.816 350.695 113.816L341 74.4558L324.823 70.8194L318.148 56.4558Z" fill="#E6E6E6"/>
<path d="M226.673 206.722L232.223 184.476L219.957 179.532L214.926 203.261C213.778 204.11 212.89 205.263 212.362 206.589C211.833 207.916 211.685 209.363 211.934 210.769C212.183 212.175 212.819 213.484 213.771 214.548C214.723 215.612 215.953 216.39 217.322 216.793C218.692 217.197 220.147 217.21 221.524 216.832C222.901 216.454 224.145 215.7 225.116 214.653C226.088 213.607 226.748 212.31 227.023 210.909C227.298 209.508 227.177 208.058 226.673 206.722Z" fill="#FFB6B6"/>
<path d="M280.585 72.9687L280.219 72.9057C276.814 72.3207 273.317 72.5744 270.032 73.6451C266.747 74.7157 263.772 76.5709 261.366 79.05C255.083 85.5139 227.036 133.585 228.046 141.619C228.987 149.111 229.35 147.444 225.924 151.27C222.497 155.095 221.194 149.27 221.141 157.234C221.088 165.199 224.131 165.129 220.897 167.077C217.662 169.024 215.523 167.668 216.114 173.041C216.705 178.414 215.801 179.84 215.609 181.718C215.418 183.596 210.774 195.647 210.774 195.647C210.774 195.647 224.442 199.317 229.954 204.813C229.954 204.813 230.581 191.214 233.363 189.98C236.146 188.745 238.737 189.389 237.954 185.894C237.172 182.398 233.155 180.85 238.076 180.972C242.998 181.094 250.599 154.924 250.599 154.924L283.468 94.9548L280.585 72.9687Z" fill="#E6E6E6"/>
<path d="M354.761 217.742L355.748 194.835L368.913 193.574L367.007 217.755C367.867 218.895 368.392 220.252 368.522 221.674C368.653 223.096 368.384 224.526 367.747 225.803C367.109 227.081 366.128 228.156 364.913 228.906C363.699 229.657 362.299 230.053 360.871 230.052C359.443 230.05 358.044 229.651 356.831 228.898C355.618 228.145 354.639 227.068 354.004 225.789C353.369 224.51 353.104 223.079 353.237 221.658C353.371 220.236 353.899 218.88 354.761 217.742Z" fill="#FFB6B6"/>
<path d="M341 74.1903L341.369 74.2337C344.8 74.6386 348.081 75.8737 350.928 77.8321C353.774 79.7905 356.101 82.4133 357.705 85.4732C361.897 93.4537 375.157 147.505 371.91 154.923C368.882 161.841 369.007 160.14 371.208 164.78C373.408 169.42 376.311 164.203 374.102 171.856C371.894 179.508 368.995 178.578 371.545 181.363C374.094 184.148 376.53 183.454 374.439 188.439C372.349 193.424 372.812 195.048 372.462 196.903C372.113 198.759 373.149 211.632 373.149 211.632C373.149 211.632 359.001 211.274 352.156 214.981C352.156 214.981 355.412 201.763 353.094 199.79C350.776 197.817 348.109 197.699 349.851 194.569C351.592 191.439 355.883 191.094 351.129 189.815C346.375 188.537 346.509 161.285 346.509 161.285L332 94.4559L341 74.1903Z" fill="#E6E6E6"/>
<path d="M254.087 41.0152C253.904 48.903 256.852 56.5407 261.086 63.2492C262.501 59.3539 264.482 55.6883 266.966 52.3707C265.777 59.7211 267.043 67.2586 270.57 73.8166C270.694 73.9055 270.823 73.9881 270.955 74.064C274.407 76.1404 278.783 76.9814 282.517 75.4817C274.802 67.1652 273.82 53.386 280.289 44.0577C282.12 41.4108 284.489 39.0698 285.623 36.0575C287.414 31.2513 285.692 25.9595 284.606 20.9485C283.591 16.2848 283.413 10.7349 286.542 7.31697C286.208 6.83933 285.752 6.45911 285.223 6.21531C284.693 5.9715 284.108 5.87286 283.528 5.92949C281.599 6.20199 280.195 7.87877 279.301 9.60576C278.406 11.3327 277.816 13.2468 276.57 14.7383C274.262 17.5303 270.331 18.1903 267.019 19.6618C258.997 23.2349 254.28 32.2383 254.087 41.0152Z" fill="#2F2E41"/>
<path d="M321.613 36.5053C321.155 34.9008 324.314 44.7086 322.79 44.8857C315.845 45.6824 306.312 49.8297 301.476 51.7645C301.258 51.7392 301.04 51.7139 300.829 51.6823C300.31 51.6254 299.804 51.5432 299.304 51.4484C288.042 49.3175 283.711 32.0176 283.711 31.8595C283.711 31.0818 285.578 9.72113 288.518 9.40498C289.29 9.32118 290.067 9.27897 290.844 9.27852H298.14C299.65 8.95316 301.18 8.73134 302.721 8.61461H302.733C317.423 7.49543 329.005 16.4488 327.923 27.3433C327.916 27.3559 327.903 27.3686 327.897 27.3812C327.583 27.8491 327.308 28.2918 327.064 28.7154C326.827 29.1137 326.629 29.4931 326.456 29.8535C325.117 32.6357 328.558 36.1364 326.276 36.7899C323.241 37.6589 334.259 66.2234 322.245 66.2234C328.089 67.8848 322.878 40.9314 321.613 36.5053Z" fill="#2F2E41"/>
<path d="M308.5 53.2657C318.041 53.2657 325.776 45.531 325.776 35.9899C325.776 26.4487 318.041 18.7141 308.5 18.7141C298.959 18.7141 291.224 26.4487 291.224 35.9899C291.224 45.531 298.959 53.2657 308.5 53.2657Z" fill="#FFB6B6"/>
<path d="M327.923 28.2854C327.634 28.4371 327.352 28.5762 327.064 28.7153C326.763 28.8608 326.462 29.0062 326.161 29.139C320.376 31.763 315.668 32.0539 312.81 28.2854C312.734 26.3025 312.288 24.3512 311.497 22.5314C311.637 24.565 311.101 26.5878 309.972 28.2854H304.22C298.294 32.2183 295.251 32.6293 299.364 45.5408C300.51 49.1386 305.07 70.074 303.276 73.1786C302.757 73.1217 297.237 50.191 296.737 50.0961C285.475 47.9653 278.319 29.4109 279.235 28.3613C279.231 25.3765 279.917 22.4311 281.241 19.7557C282.915 16.3661 285.525 13.5269 288.761 11.5737C290.691 10.6382 292.702 9.88256 294.77 9.31642C294.822 9.30376 294.867 9.29109 294.918 9.27847C295.552 9.10774 296.199 8.94967 296.846 8.81688C298.183 8.53464 299.534 8.32987 300.895 8.20357C300.991 8.19725 301.087 8.19092 301.177 8.19092C301.72 8.19219 302.253 8.33843 302.721 8.61456C302.727 8.61456 302.727 8.62086 302.733 8.62086C303.068 8.81618 303.359 9.0763 303.592 9.38596C304.001 9.90696 304.222 10.5509 304.22 11.2133H310.626C310.863 11.2133 311.1 11.2196 311.337 11.2323C315.612 11.3784 319.68 13.1147 322.743 16.1015C325.805 19.0884 327.643 23.1106 327.897 27.3812C327.916 27.6847 327.923 27.9818 327.923 28.2854Z" fill="#2F2E41"/>
<path d="M290.15 22.7628C296.436 22.7628 301.531 17.6672 301.531 11.3814C301.531 5.09562 296.436 0 290.15 0C283.864 0 278.769 5.09562 278.769 11.3814C278.769 17.6672 283.864 22.7628 290.15 22.7628Z" fill="#2F2E41"/>
<path d="M398.295 354.294C398.759 354.315 399.22 354.193 399.613 353.944C400.006 353.695 400.313 353.332 400.493 352.902C400.672 352.473 400.715 351.999 400.616 351.544C400.517 351.09 400.281 350.676 399.939 350.361L399.784 349.742C399.804 349.693 399.825 349.643 399.846 349.594C400.314 348.488 401.099 347.545 402.101 346.883C403.104 346.222 404.279 345.871 405.48 345.876C406.681 345.88 407.854 346.239 408.852 346.908C409.849 347.577 410.627 348.526 411.087 349.636C412.926 354.064 415.266 358.5 415.843 363.182C416.097 365.251 415.99 367.349 415.526 369.382C419.845 359.962 422.087 349.724 422.102 339.361C422.102 336.761 421.958 334.163 421.669 331.578C421.43 329.46 421.098 327.356 420.674 325.268C418.36 313.937 413.39 303.316 406.174 294.278C402.681 292.373 399.857 289.442 398.081 285.882C397.438 284.602 396.983 283.236 396.731 281.826C397.125 281.877 398.217 275.877 397.919 275.509C398.468 274.676 399.451 274.262 400.051 273.449C403.033 269.405 407.142 270.111 409.287 275.606C413.869 277.919 413.914 281.754 411.102 285.443C409.313 287.79 409.068 290.965 407.498 293.478C407.659 293.684 407.827 293.884 407.989 294.091C410.941 297.887 413.513 301.962 415.67 306.26C415.145 301.445 415.771 296.575 417.496 292.05C419.245 287.833 422.521 284.281 425.407 280.635C426.17 279.656 427.206 278.925 428.385 278.534C429.564 278.144 430.832 278.111 432.029 278.441C433.226 278.771 434.298 279.449 435.11 280.388C435.922 281.327 436.437 282.486 436.591 283.719C436.597 283.772 436.602 283.826 436.608 283.88C436.179 284.121 435.76 284.378 435.349 284.65C434.834 284.994 434.434 285.486 434.203 286.062C433.972 286.638 433.92 287.269 434.054 287.875C434.188 288.48 434.502 289.031 434.955 289.455C435.407 289.879 435.978 290.157 436.591 290.251L436.653 290.261C436.501 291.806 436.231 293.337 435.846 294.84C439.548 309.156 431.556 314.37 420.144 314.605C419.893 314.734 419.647 314.863 419.395 314.986C421.562 321.126 422.921 327.522 423.438 334.013C423.731 337.843 423.714 341.69 423.387 345.517L423.406 345.381C424.233 341.126 426.503 337.286 429.833 334.511C434.778 330.448 441.766 328.952 447.101 325.686C447.668 325.322 448.327 325.128 449.001 325.126C449.675 325.125 450.335 325.316 450.904 325.677C451.473 326.038 451.927 326.555 452.211 327.165C452.496 327.776 452.601 328.456 452.512 329.124L452.49 329.266C451.695 329.59 450.921 329.963 450.172 330.384C449.743 330.625 449.324 330.882 448.913 331.153C448.397 331.498 447.998 331.99 447.767 332.566C447.536 333.141 447.484 333.773 447.618 334.379C447.752 334.984 448.066 335.535 448.518 335.959C448.971 336.383 449.541 336.661 450.154 336.755L450.217 336.765C450.262 336.771 450.301 336.778 450.346 336.784C448.987 340.029 447.08 343.016 444.708 345.613C442.393 358.111 432.451 359.296 421.817 355.657H421.811C420.644 360.727 418.953 365.663 416.766 370.383H398.746C398.682 370.183 398.624 369.976 398.565 369.776C400.233 369.881 401.908 369.781 403.552 369.479C402.215 367.839 400.878 366.185 399.541 364.544C399.511 364.514 399.483 364.481 399.457 364.448C398.778 363.608 398.094 362.775 397.416 361.935L397.415 361.934C397.379 359.36 397.675 356.792 398.295 354.294Z" fill="#6DC77A"/>
<path d="M358.351 212.44C359.742 213.908 357.634 215.815 356.011 214.557C342.476 204.063 328.941 193.577 315.406 183.097C315.39 183.08 315.371 183.067 315.351 183.057C314.417 182.423 313.528 181.726 312.69 180.97C300.094 179.642 286.25 175.249 273.134 173.342C261.553 174.9 250.006 176.757 238.392 178.135C228.262 179.407 218.065 180.067 207.855 180.111C199.542 180.072 190.589 180.022 183.049 176.467C175.211 172.773 170.85 165.505 168.841 158.037C167.85 154.225 167.203 150.332 166.909 146.405V122.054C167.979 111.451 171.247 100.948 180.112 93.5494C193.415 82.4471 213.331 82.1575 230.355 81.848C250.635 81.4607 270.921 82.2642 291.107 84.2542C307.557 85.8916 324.856 87.4791 340.069 93.819C346.594 96.5446 352.743 100.329 357.236 105.45C362.292 111.253 365.217 118.607 365.527 126.297C366.333 142.362 358.252 157.058 353.825 172.224C349.983 185.353 347.819 201.268 358.351 212.44Z" fill="#2691E3"/>
<path d="M257.94 108.787H212.72C212.514 108.787 212.311 108.747 212.121 108.668C211.931 108.59 211.759 108.474 211.613 108.329C211.468 108.184 211.353 108.011 211.274 107.822C211.196 107.632 211.155 107.428 211.155 107.223C211.155 107.017 211.196 106.814 211.274 106.624C211.353 106.434 211.468 106.262 211.613 106.117C211.759 105.971 211.931 105.856 212.121 105.777C212.311 105.699 212.514 105.658 212.72 105.658H257.94C258.355 105.658 258.753 105.823 259.047 106.117C259.34 106.41 259.505 106.808 259.505 107.223C259.505 107.638 259.34 108.036 259.047 108.329C258.753 108.623 258.355 108.787 257.94 108.787Z" fill="#F2F2F2"/>
<path d="M257.94 142.151H212.72C212.305 142.151 211.907 141.986 211.613 141.693C211.32 141.399 211.155 141.001 211.155 140.587C211.155 140.172 211.32 139.774 211.613 139.48C211.907 139.187 212.305 139.022 212.72 139.022H257.94C258.355 139.022 258.753 139.187 259.047 139.48C259.34 139.774 259.505 140.172 259.505 140.587C259.505 141.001 259.34 141.399 259.047 141.693C258.753 141.986 258.355 142.151 257.94 142.151Z" fill="#F2F2F2"/>
<path d="M294.667 125.48H212.72C212.305 125.48 211.907 125.315 211.613 125.022C211.32 124.729 211.155 124.331 211.155 123.916C211.155 123.501 211.32 123.103 211.613 122.809C211.907 122.516 212.305 122.351 212.72 122.351H294.667C295.081 122.351 295.479 122.516 295.773 122.809C296.066 123.103 296.231 123.501 296.231 123.916C296.231 124.331 296.066 124.729 295.773 125.022C295.479 125.315 295.081 125.48 294.667 125.48Z" fill="#F2F2F2"/>
</g>
<defs>
<clipPath id="clip0_188_2">
<rect width="630.644" height="469.151" fill="white"/>
</clipPath>
</defs>
</svg>
